<svg id="Capa_1" data-name="Capa 1" xmlns="http://www.w3.org/2000/svg" viewBox="0 0 1173.97 238.67"><defs><style>.cls-1,.cls-2{fill:none;stroke-miterlimit:10;stroke-width:0.25px;}.cls-1{stroke:#8c8d93;}.cls-2{stroke:#211915;}.cls-3{font-size:10px;font-family:Roboto-Regular, Roboto;}</style></defs><title>dash1</title><line class="cls-1" x1="44.86" y1="20.53" x2="1152.19" y2="20.53"/><line class="cls-1" x1="44.86" y1="39.19" x2="1152.19" y2="39.19"/><line class="cls-1" x1="44.86" y1="57.69" x2="1152.19" y2="57.69"/><line class="cls-1" x1="44.86" y1="75.59" x2="1152.19" y2="75.59"/><line class="cls-1" x1="44.86" y1="93.94" x2="1152.19" y2="93.94"/><line class="cls-2" x1="44.86" y1="112.94" x2="1152.19" y2="112.94"/><line class="cls-1" x1="44.86" y1="130.94" x2="1152.19" y2="130.94"/><line class="cls-1" x1="44.86" y1="149.44" x2="1152.19" y2="149.44"/><line class="cls-1" x1="44.86" y1="167.44" x2="1152.19" y2="167.44"/><line class="cls-1" x1="44.86" y1="186.19" x2="1152.19" y2="186.19"/><line class="cls-1" x1="44.86" y1="204.19" x2="1152.19" y2="204.19"/><line class="cls-1" x1="51.19" y1="20.53" x2="51.19" y2="211.86"/><text class="cls-3" transform="translate(39.11 24.03)">1</text><text class="cls-3" transform="translate(24.78 42.36)">0.80</text><text class="cls-3" transform="translate(24.78 60.36)">0.60</text><text class="cls-3" transform="translate(24.78 77.78)">0.40</text><text class="cls-3" transform="translate(24.78 96.86)">0.20</text><text class="cls-3" transform="translate(38.53 115.69)">0</text><text class="cls-3" transform="translate(21.78 133.53)">-0.20</text><text class="cls-3" transform="translate(21.78 152.19)">-0.40</text><text class="cls-3" transform="translate(21.78 170.28)">-0.60</text><text class="cls-3" transform="translate(21.78 188.86)">-0.80</text><text class="cls-3" transform="translate(36.61 207.11)">-1</text><text class="cls-3" transform="translate(42.23 220.49)">N/A</text></svg>