<svg id="Capa_1" data-name="Capa 1" xmlns="http://www.w3.org/2000/svg" viewBox="0 0 596.26 226.67"><defs><style>.cls-1,.cls-2{fill:none;stroke-miterlimit:10;}.cls-1{stroke:gray;stroke-width:0.5px;}.cls-2{stroke:#8c8d93;stroke-width:0.25px;}.cls-3{font-size:10px;font-family:Roboto-Regular, Roboto;}.cls-4{letter-spacing:-0.01em;}.cls-5{letter-spacing:-0.01em;}.cls-6{fill:#36a0e9;}</style></defs><title>dash2</title><line class="cls-1" x1="30.79" y1="182.71" x2="572.37" y2="182.71"/><line class="cls-2" x1="30.79" y1="31.21" x2="572.37" y2="31.21"/><line class="cls-2" x1="30.79" y1="50.05" x2="572.37" y2="50.05"/><line class="cls-2" x1="30.79" y1="68.88" x2="572.37" y2="68.88"/><line class="cls-2" x1="30.79" y1="87.71" x2="572.37" y2="87.71"/><line class="cls-2" x1="30.79" y1="106.55" x2="572.37" y2="106.55"/><line class="cls-2" x1="30.79" y1="126.71" x2="572.37" y2="126.71"/><line class="cls-2" x1="30.79" y1="145.38" x2="572.37" y2="145.38"/><line class="cls-2" x1="30.79" y1="164.05" x2="572.37" y2="164.05"/><line class="cls-1" x1="38.45" y1="31.21" x2="38.45" y2="189.71"/><line class="cls-2" x1="83.29" y1="31.21" x2="83.29" y2="189.71"/><line class="cls-2" x1="127.79" y1="31.21" x2="127.79" y2="189.71"/><line class="cls-2" x1="171.79" y1="31.21" x2="171.79" y2="189.71"/><line class="cls-2" x1="215.79" y1="31.21" x2="215.79" y2="189.71"/><line class="cls-2" x1="260.54" y1="31.21" x2="260.54" y2="189.71"/><line class="cls-2" x1="305.54" y1="31.21" x2="305.54" y2="189.71"/><line class="cls-2" x1="349.79" y1="31.21" x2="349.79" y2="189.71"/><line class="cls-2" x1="393.79" y1="31.21" x2="393.79" y2="189.71"/><line class="cls-2" x1="438.29" y1="31.21" x2="438.29" y2="189.71"/><line class="cls-2" x1="527.54" y1="31.21" x2="527.54" y2="189.71"/><line class="cls-2" x1="482.91" y1="31.21" x2="482.91" y2="189.71"/><text class="cls-3" transform="translate(23.89 33.96)">8</text><text class="cls-3" transform="translate(23.89 52.71)">7</text><text class="cls-3" transform="translate(23.89 71.55)">6</text><text class="cls-3" transform="translate(23.89 91.05)">5</text><text class="cls-3" transform="translate(23.89 109.8)">4</text><text class="cls-3" transform="translate(23.89 129.05)">3</text><text class="cls-3" transform="translate(23.89 148.13)">2</text><text class="cls-3" transform="translate(23.89 167.38)">1</text><text class="cls-3" transform="translate(23.89 186.05)">0</text><text class="cls-3" transform="translate(51.58 198.55)">Ene</text><text class="cls-3" transform="translate(96.43 198.55)"><tspan class="cls-4">F</tspan><tspan x="5.42" y="0">eb</tspan></text><text class="cls-3" transform="translate(140.57 198.55)">Mar</text><text class="cls-3" transform="translate(185.09 198.55)">Abr</text><text class="cls-3" transform="translate(229.31 198.55)">M<tspan class="cls-5" x="8.73" y="0">a</tspan><tspan x="14.1" y="0">y</tspan></text><text class="cls-3" transform="translate(272.82 198.55)">Jun</text><text class="cls-3" transform="translate(319.24 198.55)">Jul</text><text class="cls-3" transform="translate(362.43 198.55)">Ago</text><text class="cls-3" transform="translate(408.55 198.55)">Sep</text><text class="cls-3" transform="translate(453.03 198.55)">Oct</text><text class="cls-3" transform="translate(495.29 198.55)">N<tspan class="cls-5" x="7.13" y="0">o</tspan><tspan x="12.76" y="0">v</tspan></text><text class="cls-3" transform="translate(543.49 198.55)">Dic</text><rect class="cls-6" x="133.53" y="39.71" width="32" height="143"/></svg>