<svg id="Capa_1" data-name="Capa 1" xmlns="http://www.w3.org/2000/svg" viewBox="0 0 596.26 226.67"><defs><style>.cls-1,.cls-2{fill:none;stroke-miterlimit:10;}.cls-1{stroke:#8c8d93;stroke-width:0.25px;}.cls-2{stroke:gray;stroke-width:0.5px;}.cls-3{font-size:10px;font-family:Roboto-Regular, Roboto;}.cls-4{fill:#f0b913;}</style></defs><title>dash3</title><line class="cls-1" x1="31.07" y1="30.53" x2="572.07" y2="30.53"/><line class="cls-1" x1="31.07" y1="50.03" x2="572.07" y2="50.03"/><line class="cls-1" x1="31.07" y1="68.69" x2="572.07" y2="68.69"/><line class="cls-1" x1="31.07" y1="88.03" x2="572.07" y2="88.03"/><line class="cls-1" x1="31.07" y1="106.69" x2="572.07" y2="106.69"/><line class="cls-1" x1="31.07" y1="126.19" x2="572.07" y2="126.19"/><line class="cls-1" x1="31.07" y1="145.03" x2="572.07" y2="145.03"/><line class="cls-1" x1="31.07" y1="164.19" x2="572.07" y2="164.19"/><line class="cls-2" x1="31.07" y1="183.13" x2="572.07" y2="183.13"/><line class="cls-2" x1="38.41" y1="30.53" x2="38.41" y2="190.19"/><line class="cls-1" x1="55.91" y1="30.53" x2="55.91" y2="190.19"/><line class="cls-1" x1="73.53" y1="30.71" x2="73.53" y2="190.38"/><line class="cls-1" x1="90.57" y1="30.53" x2="90.57" y2="190.19"/><line class="cls-1" x1="107.91" y1="30.53" x2="107.91" y2="190.19"/><line class="cls-1" x1="125.16" y1="30.53" x2="125.16" y2="190.19"/><line class="cls-1" x1="142.03" y1="30.53" x2="142.03" y2="190.19"/><line class="cls-1" x1="159.78" y1="30.53" x2="159.78" y2="190.19"/><line class="cls-1" x1="177.16" y1="30.53" x2="177.16" y2="190.19"/><line class="cls-1" x1="194.03" y1="30.53" x2="194.03" y2="190.19"/><line class="cls-1" x1="211.41" y1="30.53" x2="211.41" y2="190.19"/><line class="cls-1" x1="228.91" y1="30.53" x2="228.91" y2="190.19"/><line class="cls-1" x1="246.03" y1="30.53" x2="246.03" y2="190.19"/><line class="cls-1" x1="263.16" y1="30.53" x2="263.16" y2="190.19"/><line class="cls-1" x1="280.53" y1="30.53" x2="280.53" y2="190.19"/><line class="cls-1" x1="297.66" y1="30.53" x2="297.66" y2="190.19"/><line class="cls-1" x1="314.78" y1="30.53" x2="314.78" y2="190.19"/><line class="cls-1" x1="331.91" y1="30.53" x2="331.91" y2="190.19"/><line class="cls-1" x1="349.53" y1="30.53" x2="349.53" y2="190.19"/><line class="cls-1" x1="366.53" y1="30.53" x2="366.53" y2="190.19"/><line class="cls-1" x1="383.78" y1="30.53" x2="383.78" y2="190.19"/><line class="cls-1" x1="401.66" y1="30.53" x2="401.66" y2="190.19"/><line class="cls-1" x1="418.72" y1="30.53" x2="418.72" y2="190.19"/><line class="cls-1" x1="435.78" y1="30.53" x2="435.78" y2="190.19"/><line class="cls-1" x1="453.03" y1="30.53" x2="453.03" y2="190.19"/><line class="cls-1" x1="470.28" y1="30.53" x2="470.28" y2="190.19"/><line class="cls-1" x1="487.28" y1="30.53" x2="487.28" y2="190.19"/><line class="cls-1" x1="504.66" y1="30.53" x2="504.66" y2="190.19"/><line class="cls-1" x1="521.91" y1="30.53" x2="521.91" y2="190.19"/><line class="cls-1" x1="539.28" y1="30.53" x2="539.28" y2="190.19"/><line class="cls-1" x1="556.16" y1="30.53" x2="556.16" y2="190.19"/><text class="cls-3" transform="translate(24.18 34.44)">8</text><text class="cls-3" transform="translate(24.18 53.19)">7</text><text class="cls-3" transform="translate(24.18 72.03)">6</text><text class="cls-3" transform="translate(24.18 91.53)">5</text><text class="cls-3" transform="translate(24.18 110.28)">4</text><text class="cls-3" transform="translate(24.18 129.53)">3</text><text class="cls-3" transform="translate(24.18 148.61)">2</text><text class="cls-3" transform="translate(24.18 167.86)">1</text><text class="cls-3" transform="translate(24.18 186.53)">0</text><text class="cls-3" transform="translate(44.35 198.07)">1</text><text class="cls-3" transform="translate(59.11 198.07)"><tspan xml:space="preserve"> 2</tspan></text><text class="cls-3" transform="translate(76.36 198.07)"><tspan xml:space="preserve"> 3</tspan></text><text class="cls-3" transform="translate(95.74 198.07)">4 </text><text class="cls-3" transform="translate(113.2 198.07)">5</text><text class="cls-3" transform="translate(130.35 198.07)">6</text><text class="cls-3" transform="translate(144.86 198.07)"><tspan xml:space="preserve"> 7</tspan></text><text class="cls-3" transform="translate(164.85 198.07)">8</text><text class="cls-3" transform="translate(182.48 198.07)">9</text><text class="cls-3" transform="translate(196.54 198.07)">10</text><text class="cls-3" transform="translate(214.42 198.07)">11</text><text class="cls-3" transform="translate(231.54 198.07)">12</text><text class="cls-3" transform="translate(248.29 197.94)">13</text><text class="cls-3" transform="translate(265.42 197.94)">14</text><text class="cls-3" transform="translate(282.92 198.07)">15</text><text class="cls-3" transform="translate(300.29 197.94)">16</text><text class="cls-3" transform="translate(317.79 198.07)">17</text><text class="cls-3" transform="translate(335.17 197.94)">18</text><text class="cls-3" transform="translate(352.23 198.07)">19</text><text class="cls-3" transform="translate(369.01 197.94)">20</text><text class="cls-3" transform="translate(387.05 198.07)">21</text><text class="cls-3" transform="translate(404.11 198.07)">22</text><text class="cls-3" transform="translate(421.23 198.07)">23</text><text class="cls-3" transform="translate(438.17 198.07)">24</text><text class="cls-3" transform="translate(455.73 198.07)">25</text><text class="cls-3" transform="translate(472.83 198.07)">26</text><text class="cls-3" transform="translate(490.17 198.07)">27</text><text class="cls-3" transform="translate(507.54 198.07)">28</text><text class="cls-3" transform="translate(525.29 198.07)">29</text><text class="cls-3" transform="translate(542.06 197.94)">30 </text><text class="cls-3" transform="translate(559.54 198.07)">31</text><rect class="cls-4" x="421" y="38.97" width="12.5" height="143.94"/></svg>