<svg id="Capa_1" data-name="Capa 1" xmlns="http://www.w3.org/2000/svg" viewBox="0 0 150 150"><defs><style>.cls-1{fill:#5b3934;}</style></defs><title>food1</title><path class="cls-1" d="M77,30.37A44.63,44.63,0,1,0,121.64,75,44.63,44.63,0,0,0,77,30.37Zm32.51,36.48c.12.47.26.93.36,1.41.14.69.22,1.39.32,2.09.06.41.14.82.19,1.23a34,34,0,0,1,0,6.84c0,.42-.13.82-.19,1.23-.1.7-.18,1.4-.32,2.09-.1.48-.24.94-.36,1.41s-.28,1.21-.46,1.8-.37,1-.55,1.52-.36,1-.57,1.56-.5,1-.75,1.56-.42.93-.66,1.37-.64,1.06-1,1.59-.46.79-.71,1.17c-.37.55-.79,1.07-1.19,1.6-.25.32-.47.67-.73,1-.45.54-.93,1-1.41,1.56-.25.27-.48.56-.74.82-.52.52-1.07,1-1.62,1.48-.25.22-.49.47-.75.68-.58.48-1.2.92-1.81,1.36-.25.18-.49.39-.75.56-.64.43-1.31.82-2,1.21-.26.15-.51.33-.78.47-.68.37-1.4.7-2.11,1-.27.12-.53.27-.81.39-.72.31-1.46.56-2.2.82-.29.1-.57.22-.87.32-.74.23-1.5.41-2.26.6-.32.08-.62.18-.94.24-.74.16-1.51.26-2.27.36-.35,0-.7.12-1.05.16-.74.08-1.49.1-2.24.13-.37,0-.73.06-1.1.06H77a33.55,33.55,0,1,1,0-67.09h.24c.3,0,.59,0,.89.05.83,0,1.65.05,2.46.14.29,0,.57.09.86.13.83.11,1.65.22,2.46.39.27.05.52.14.78.2.81.19,1.63.39,2.42.64.25.08.48.18.72.26.79.27,1.58.55,2.34.87.24.1.46.23.69.33.75.34,1.5.69,2.22,1.08.23.13.45.28.69.42.7.4,1.4.81,2.06,1.26.24.16.46.35.69.52.64.46,1.27.91,1.88,1.42.24.2.46.43.7.63.57.5,1.14,1,1.67,1.53.25.25.47.53.71.79.49.52,1,1,1.44,1.59.25.31.47.64.71,1,.41.54.83,1.06,1.21,1.62.25.37.46.77.7,1.15.33.53.67,1.06,1,1.61s.44.91.66,1.36.52,1,.75,1.57.38,1,.57,1.56.39,1,.55,1.52S109.36,66.24,109.51,66.85ZM108.56,75A31.56,31.56,0,1,1,77,43.44,31.56,31.56,0,0,1,108.56,75Zm28.92-34.85V113.9a4.21,4.21,0,0,1-2.93,4.1v0a3.59,3.59,0,0,1-1,.16,4,4,0,0,1-3.92-4.27c.76-7,4.83-22.14,2.74-28.17-1.2-3.45-5.58-9.68-5.58-20,0-19.25,4.51-26.12,7.63-27.73l.13,0A2.2,2.2,0,0,1,137.48,40.15Zm-110.71-2a194.2,194.2,0,0,1,1.8,22.88c0,7.1-1.45,7-5.66,8.7l1.55,44.35a4.12,4.12,0,0,1-3.92,4.27,3.7,3.7,0,0,1-.57-.06v0a4.15,4.15,0,0,1-3.35-4.19l1.55-44.35c-4.21-1.68-5.66-1.6-5.66-8.7A195.22,195.22,0,0,1,14.3,38.17h1l.23,25.08h2.06l.52-25.08h1l.45,25.08h2.06l.49-25.08h1.07l.46,25.08h2.06l.18-25.08Z"/></svg>