<svg id="Capa_1" data-name="Capa 1" xmlns="http://www.w3.org/2000/svg" viewBox="0 0 150 150"><defs><style>.cls-1{fill:#5b3934;}</style></defs><title>food2</title><path class="cls-1" d="M71.44,35.06C66.05,47.79,68.08,58.54,73,64.69c-.91-12.63-.81-18,4.23-28.6S72.74,18.5,66.31,15.58C66.31,15.58,76.83,22.32,71.44,35.06Z"/><path class="cls-1" d="M85.84,45.65c-5.39,12.74-3.37,23.48,1.54,29.63-.91-12.63-.81-18,4.23-28.6s-4.47-17.58-10.9-20.51C80.71,26.17,91.24,32.91,85.84,45.65Z"/><path class="cls-1" d="M110.71,114.66c1.2-4.8,1.52-10.49,1.93-17l.34-4.93c0-.49.07-1,.11-1.49H36.91c1.69,20.86-.2,34.92,20.27,39.43v3.74H92.82v-3.74c8-1.76,12.57-5,15.29-9.48A21.28,21.28,0,0,0,110.71,114.66Z"/><path class="cls-1" d="M56.93,46.43c-5.39,12.74-3.37,23.48,1.54,29.63-.91-12.63-.81-18,4.23-28.6S58.23,29.88,51.8,26.95C51.8,26.95,62.32,33.69,56.93,46.43Z"/><path class="cls-1" d="M114.06,82.19H35.94c.26,1.87.47,3.69.65,5.47h76.82C113.59,85.88,113.8,84.06,114.06,82.19Z"/></svg>