<svg id="Capa_1" data-name="Capa 1" xmlns="http://www.w3.org/2000/svg" viewBox="0 0 150 150"><defs><style>.cls-1{fill:#5b3934;}</style></defs><title>food4</title><path class="cls-1" d="M136.84,103.48a5.31,5.31,0,0,1-5.51,5.05H18.66a5.07,5.07,0,1,1,0-10.1H131.34A5.31,5.31,0,0,1,136.84,103.48Z"/><path class="cls-1" d="M80.11,89.74A6.09,6.09,0,0,1,79,88.48,5.3,5.3,0,0,1,77.66,87l-.81-.63a3.56,3.56,0,0,1-.33-.35l-.13,0h-.24A5.55,5.55,0,0,0,73,96.12a5.5,5.5,0,0,0,.7.42l.38.16a5.53,5.53,0,0,0,.57.2l.34.09a5.48,5.48,0,0,0,1,.14h.24c.16,0,.32,0,.47,0s.34,0,.51,0a5.52,5.52,0,0,0,.57-.15c.16,0,.32-.08.47-.14a5.69,5.69,0,0,0,.53-.26c.14-.07.28-.13.42-.22a5.31,5.31,0,0,0,.48-.36c.12-.09.24-.18.35-.28a5.38,5.38,0,0,0,.42-.47c.09-.11.2-.21.28-.32a5.16,5.16,0,0,0,.34-.57c.06-.12.14-.22.2-.34a5.59,5.59,0,0,0,.25-.7c0-.11.08-.21.11-.32a5.51,5.51,0,0,0,.16-1.1,5.64,5.64,0,0,0-.07-1.08A9.45,9.45,0,0,1,80.11,89.74ZM75.23,95a3.55,3.55,0,0,1,.93-7h.15a3.47,3.47,0,0,1,3.06,2.06A11.08,11.08,0,0,1,75.23,95ZM85.5,96.12a5.54,5.54,0,0,1-2.34-4.6,9.12,9.12,0,0,0,2.11.8A3.53,3.53,0,0,0,87.77,95a10.66,10.66,0,0,0,2.56-2.32,15.82,15.82,0,0,0,3.9-.71,5.68,5.68,0,0,1-.14.94c0,.11-.08.21-.11.32a5.59,5.59,0,0,1-.25.7c-.06.12-.14.23-.2.34a5.16,5.16,0,0,1-.34.57c-.08.12-.19.21-.28.32a5.38,5.38,0,0,1-.42.47c-.11.1-.24.19-.35.28a5.31,5.31,0,0,1-.48.36c-.13.08-.28.15-.42.22a5.69,5.69,0,0,1-.53.26c-.15.06-.31.1-.47.14a5.52,5.52,0,0,1-.57.15c-.17,0-.34,0-.51,0s-.31,0-.47,0h-.24a5.48,5.48,0,0,1-1-.14l-.34-.09a5.53,5.53,0,0,1-.57-.2l-.38-.16A5.5,5.5,0,0,1,85.5,96.12Zm19.84-37.59c2-2.87,4.8-6.26,4.83-7.82s-3.27-2.36-6.51-2.38-5.76.88-8.86,1.15-3.94-1.58-4.6-1.5-.51,2.24-2.09,3.32-1,2.92-2.42,5.53-2.89,3-2.13-.21,1.94-2.88-.74-6.64-1.86-7.37-2.5-8.33-2.2,1.87-4.75,5.42-1,4-3.29,4S70.77,55,68.67,53s-2,2.81-2,4.64-2.93.69-3.94.18-3.35.29-1.87,4.36.92,6.71,2.42,9.13,2,4.46,5.16,4.79,5.38-1.66,7.92-1.71,4.69-.43,3.13.65-8,5.08-11.27,4.72a11.49,11.49,0,0,0-2.91-.09,39.71,39.71,0,0,0-4.1-2.89c-8.53-5.3-24.46-11.07-24.46-11.07v1.38s4.93,1.82,10.89,4.48a12.67,12.67,0,0,1,1.27,1A8,8,0,0,1,50.69,75a4.46,4.46,0,0,1,.13,3.58A8.64,8.64,0,0,1,48,82.07a9.47,9.47,0,0,1-4.6,2.12,7.89,7.89,0,0,1-5.26-1.11h0a8.24,8.24,0,0,0,2.11-1.49,5,5,0,0,0,1.47-5,3.86,3.86,0,0,0-1.81-2.21,3.94,3.94,0,0,0-3-.23,4.12,4.12,0,0,0-2.46,1.75,4,4,0,0,0-.35,3,8.09,8.09,0,0,0,3.21,4.31,11.69,11.69,0,0,1-1.34.49,9.69,9.69,0,0,1-4,.44,4,4,0,0,1-2.65-1.43,4.5,4.5,0,0,1-.81-1.81,3.7,3.7,0,0,1-.09-.7,3.74,3.74,0,0,0,.08.7,4.53,4.53,0,0,0,.79,1.83A4.08,4.08,0,0,0,32,84.23a9.8,9.8,0,0,0,4-.38,11.8,11.8,0,0,0,1.46-.51c.11.08.21.17.33.24a8.54,8.54,0,0,0,5.66,1.28,10.24,10.24,0,0,0,5-2.2,9.43,9.43,0,0,0,3.12-3.81,5.35,5.35,0,0,0-.09-4.26,7.85,7.85,0,0,0-1.11-1.76c5.73,2.68,11.86,5.95,15.28,9a14,14,0,0,1,3,4.56l1.42-.69S69.93,84,67,81.13A6.68,6.68,0,0,0,73,80.74c4.15-2.28,6.52-3.54,8.42-6A36.52,36.52,0,0,1,79,80.94c-1.86,3.88-1,4.36.94,6.61a11.14,11.14,0,0,0,3.56,2.94s-1,.26,1.69.31,5.27,1.43,7.57.24,4.16-.34,2.63-2.63-2.19-3.26,1-3.12,4-.11,2.92-1.35-1.07-2.21,2.25-3.16,6.28-3.06,5.69-4.73-.09-2.87-3.77-3.76-6-1.43-5.65-1.76,7-2.54,7.11-3.3-2.71-.44-2.27-1.79S103.31,61.4,105.34,58.53ZM69.41,55a7.7,7.7,0,0,1-1.3,3.32c-.29.52-.57,1-.79,1.49A5.85,5.85,0,0,0,67,61.19a4.7,4.7,0,0,0-2.27-.81,2.42,2.42,0,0,0-.75.12l-.5-.27a2.49,2.49,0,0,0-1.9-.9h0a1.09,1.09,0,0,1,.2-.42.6.6,0,0,1,.46-.22,10,10,0,0,0,3.42,1,2.15,2.15,0,0,0,1.61-.59,1.92,1.92,0,0,0,.51-1.44,13,13,0,0,1,.25-3.91l0,0a2.79,2.79,0,0,0,1.46.81A2.87,2.87,0,0,0,69.41,55ZM34.62,78.81a3.45,3.45,0,0,1,.25-2.69,3.69,3.69,0,0,1,2.19-1.59,3.58,3.58,0,0,1,2.66.15,3.5,3.5,0,0,1,1.7,2,4.7,4.7,0,0,1-1.33,4.73A8,8,0,0,1,38,82.94,7.76,7.76,0,0,1,34.62,78.81Zm66.16.92a3.43,3.43,0,0,1,2.19-1h.21c.26,0,.52,0,.77,0a13.16,13.16,0,0,1-2.59,1c-.47.13-.88.27-1.25.41C100.35,80.07,100.57,79.9,100.78,79.73ZM98.25,81a4,4,0,0,0,.6-.14,2.17,2.17,0,0,0-.46,3.45h-.58l-1.3,0-.62,0c-1,0-2.07.12-2.54,1s.08,1.92,1,3.36a8.64,8.64,0,0,0-1.3.44,10.79,10.79,0,0,1-5.52-2.46,15.43,15.43,0,0,0-1-1.37,6.53,6.53,0,0,1-1.42-2.31,9.17,9.17,0,0,0,4,.94,7.94,7.94,0,0,0,3.2-.66,4.53,4.53,0,0,0,2.24-2.08.64.64,0,0,1,.7-.44,5.91,5.91,0,0,1,1.12.17,7,7,0,0,0,1.43.2A3,3,0,0,0,98.25,81Zm3.64-14.53a2,2,0,0,0,1.08.88c-1,.47-2.45,1-3.29,1.34a9.15,9.15,0,0,0-2.45,1.1,4.51,4.51,0,0,0-.64.14,17.61,17.61,0,0,0-3.16,1.44,9.13,9.13,0,0,1-4.09,1.47,4,4,0,0,1-1.56-.33,2.46,2.46,0,0,0-1-.2,2.38,2.38,0,0,0-2.16,1.52H84.6a2.62,2.62,0,0,1-1.13-.29,2.13,2.13,0,0,0-.89-.19,2.44,2.44,0,0,0-.5.05,2.93,2.93,0,0,0-.69-1.86,5.33,5.33,0,0,0-.23-1.65A19.12,19.12,0,0,0,80,67.14a2.47,2.47,0,0,1-.09-2.22,7.43,7.43,0,0,0,.33-1.47,6.3,6.3,0,0,0-.84-3.37,9.35,9.35,0,0,1-.53-1.28,43.43,43.43,0,0,1-1.13-5.69,2.59,2.59,0,0,0-2.67-2.29l-.35,0c0-.11.1-.23.14-.36a10.27,10.27,0,0,1,1.52-2.81c.58-.82,1.11-1.59,1.6-2.29s1.17-1.71,1.64-2.3c0,.13,0,.26,0,.39A13.29,13.29,0,0,0,82,50.57c1.73,2.42,1.63,2.67,1.18,3.91a15.83,15.83,0,0,0-.6,1.91,6.19,6.19,0,0,0-.2,2,18.13,18.13,0,0,0,0,4.79A20.09,20.09,0,0,1,82.49,67a2.81,2.81,0,0,0,2.75,3,2.59,2.59,0,0,0,1.11-.25,4.74,4.74,0,0,0,2.8-4.2c.19-2.27,2-3.36,4.08-4.61a18.08,18.08,0,0,0,3-2.13,9.62,9.62,0,0,1,2.85-1.66,9.09,9.09,0,0,0,4-2.73,9.78,9.78,0,0,1,2.8-2.35,11.91,11.91,0,0,0,2.5-1.94c.58.26.78.5.78.58,0,.92-1.94,3.53-3.34,5.44-.45.61-.89,1.22-1.31,1.81a15.42,15.42,0,0,0-2.44,6,11.58,11.58,0,0,1-.28,1.15A1.65,1.65,0,0,0,101.89,66.48Zm-45.38,24a5.58,5.58,0,0,0-.26-.94v0A5.56,5.56,0,0,0,51.3,86h-.24a5.55,5.55,0,0,0-3.19,10.1,5.5,5.5,0,0,0,.7.42l.38.16a5.53,5.53,0,0,0,.57.2l.34.09a5.48,5.48,0,0,0,1,.14h.24c.16,0,.32,0,.47,0s.34,0,.51,0a5.52,5.52,0,0,0,.57-.15c.16,0,.32-.08.47-.14a5.69,5.69,0,0,0,.53-.26c.14-.07.28-.13.42-.22a5.31,5.31,0,0,0,.48-.36c.12-.09.24-.18.35-.28a5.38,5.38,0,0,0,.42-.47c.09-.11.2-.21.28-.32a5.16,5.16,0,0,0,.34-.57c.06-.12.14-.22.2-.34a5.59,5.59,0,0,0,.25-.7c0-.11.08-.21.11-.32a5.51,5.51,0,0,0,.16-1.1,5.67,5.67,0,0,0-.07-1.14C56.55,90.62,56.53,90.58,56.52,90.53ZM50.14,95a3.55,3.55,0,0,1,.93-7h.15a3.47,3.47,0,0,1,3.06,2.06A11.08,11.08,0,0,1,50.14,95Zm18.92-4.48a5.58,5.58,0,0,0-.26-.94v0A5.56,5.56,0,0,0,63.85,86h-.24a5.55,5.55,0,0,0-3.19,10.1,5.5,5.5,0,0,0,.7.42l.38.16a5.53,5.53,0,0,0,.57.2l.34.09a5.48,5.48,0,0,0,1,.14h.24c.16,0,.32,0,.47,0s.34,0,.51,0a5.52,5.52,0,0,0,.57-.15c.16,0,.32-.08.47-.14a5.69,5.69,0,0,0,.53-.26c.14-.07.28-.13.42-.22a5.31,5.31,0,0,0,.48-.36c.12-.09.24-.18.35-.28a5.38,5.38,0,0,0,.42-.47c.09-.11.2-.21.28-.32a5.16,5.16,0,0,0,.34-.57c.06-.12.14-.22.2-.34a5.59,5.59,0,0,0,.25-.7c0-.11.08-.21.11-.32a5.51,5.51,0,0,0,.16-1.1,5.67,5.67,0,0,0-.07-1.14C69.09,90.62,69.07,90.58,69.06,90.53ZM62.68,95a3.55,3.55,0,0,1,.93-7h.15a3.47,3.47,0,0,1,3.06,2.06A11.08,11.08,0,0,1,62.68,95Z"/></svg>