<svg id="Capa_1" data-name="Capa 1" xmlns="http://www.w3.org/2000/svg" viewBox="0 0 150 150"><defs><style>.cls-1{fill:#5b3934;}</style></defs><title>food5</title><path class="cls-1" d="M94.13,84.28A13.44,13.44,0,0,1,87,82.38a3.82,3.82,0,0,0-2.43-.71,4,4,0,0,0-2.43.71,14.34,14.34,0,0,1-14.28,0,3.82,3.82,0,0,0-2.43-.71,4,4,0,0,0-2.43.71,14.34,14.34,0,0,1-14.28,0,3.74,3.74,0,0,0-2.43-.71,4.2,4.2,0,1,1,0-8.38,13.44,13.44,0,0,1,7.14,1.9,3.74,3.74,0,0,0,2.43.71,4,4,0,0,0,2.43-.71,14.34,14.34,0,0,1,14.28,0A3.82,3.82,0,0,0,75,75.9a4,4,0,0,0,2.43-.71,14.34,14.34,0,0,1,14.28,0,3.82,3.82,0,0,0,2.43.71,4.13,4.13,0,0,0,2.43-.71,13.44,13.44,0,0,1,7.14-1.9,4.2,4.2,0,1,1,0,8.38,4,4,0,0,0-2.43.71A13.44,13.44,0,0,1,94.13,84.28Zm-9.57-5a6.36,6.36,0,0,1,3.57,1,11.92,11.92,0,0,0,12,0,6.11,6.11,0,0,1,3.57-1,1.84,1.84,0,1,0,0-3.62,11.19,11.19,0,0,0-6,1.62,6.11,6.11,0,0,1-3.57,1,6.48,6.48,0,0,1-3.57-1,11.92,11.92,0,0,0-12,0,6.11,6.11,0,0,1-3.57,1,6.48,6.48,0,0,1-3.57-1,11.92,11.92,0,0,0-12,0,6.11,6.11,0,0,1-3.57,1,6.36,6.36,0,0,1-3.57-1,11.19,11.19,0,0,0-6-1.62,1.84,1.84,0,1,0,0,3.62,6.36,6.36,0,0,1,3.57,1,11.92,11.92,0,0,0,12,0,6.11,6.11,0,0,1,3.57-1,6.36,6.36,0,0,1,3.57,1,11.92,11.92,0,0,0,12,0A6,6,0,0,1,84.57,79.28Z"/><path class="cls-1" d="M66.72,67.1a1.57,1.57,0,1,1,1.62-1.57A1.6,1.6,0,0,1,66.72,67.1Zm0-2.38a.81.81,0,1,0,.76.81A.79.79,0,0,0,66.72,64.72Z"/><path class="cls-1" d="M75.71,62.43a1.57,1.57,0,1,1,1.62-1.57A1.6,1.6,0,0,1,75.71,62.43Zm0-2.38a.81.81,0,1,0,.76.81A.79.79,0,0,0,75.71,60.05Z"/><path class="cls-1" d="M84.71,67.1a1.57,1.57,0,1,1,1.62-1.57A1.6,1.6,0,0,1,84.71,67.1Zm0-2.38a.81.81,0,1,0,.76.81A.83.83,0,0,0,84.71,64.72Z"/><path class="cls-1" d="M97.84,77.09a1.39,1.39,0,0,1-.43-.1,1.2,1.2,0,0,1-.67-1.52,18.65,18.65,0,0,0,1-5.14c-.29-4-2.71-7.09-5.52-6.9a2.73,2.73,0,0,0-1.19.29,1.21,1.21,0,0,1-1.14-.1,1.26,1.26,0,0,1-.52-1V61.43C89.18,57.86,87.23,55,85.09,55h-.14a1.17,1.17,0,0,1-1.19-.81c-.9-2.71-5.9-5-7.71-5.71h0a40.39,40.39,0,0,1-6.23-3.38,1.22,1.22,0,0,0-1,0,.94.94,0,0,0-.29.52l1.62,3a.68.68,0,0,1,.1.29,3.73,3.73,0,0,1-.62,3.19A5.89,5.89,0,0,1,65.48,54a4.79,4.79,0,0,0-4.14,5.28,5,5,0,0,0,.1.71,1.13,1.13,0,0,1-.24,1,1.52,1.52,0,0,1-.9.48h-.1a6,6,0,0,0-5.57,6.38,6.16,6.16,0,0,0,.67,2.38,1.12,1.12,0,0,1,0,1.09,1.23,1.23,0,0,1-.9.62A1.78,1.78,0,0,0,53,74,3.43,3.43,0,0,0,53.25,75a1.15,1.15,0,0,1,.19,1.33h0s0,.14-.1.19a1.06,1.06,0,0,1-.86.48,1.12,1.12,0,0,1-1-.48,5.05,5.05,0,0,1-.71-2.47,4.46,4.46,0,0,1,2-4.09,9.72,9.72,0,0,1-.38-2,8.3,8.3,0,0,1,2.09-6.14,8.13,8.13,0,0,1,4.57-2.62,7.14,7.14,0,0,1,6.38-7.57,4,4,0,0,0,2.38-1A1.31,1.31,0,0,0,68,49.58l-1.71-3.19a1.27,1.27,0,0,1-.14-.57,3.52,3.52,0,0,1,1.33-2.62,3.56,3.56,0,0,1,3.19-.38A2.32,2.32,0,0,1,71,43,38.65,38.65,0,0,0,77,46.2c.86.29,6.9,2.62,8.8,6.43,3.14.43,5.71,4,6,8.52.14,0,.24,0,.38,0,4.09-.19,7.66,3.9,8,9.14a13.92,13.92,0,0,1-.57,4.09,1.15,1.15,0,0,1-.24,1.29c-.1.19-.24.48-.38.81A1.53,1.53,0,0,1,97.84,77.09Z"/><path class="cls-1" d="M89.23,107.36H60.1c-5.09,0-8.38-3.57-8.38-9.14L50.58,84.09a1.18,1.18,0,0,1,1.09-1.29c9.71,3.79,6.95-4.3,14.4-1.8,6.74,2.26,12.14,1.71,18.36-.49,6.72-2.37,4.2,6.36,13.45,1a1.16,1.16,0,0,1,1,1.33C98.27,89,97.08,98,97,98.08v0C96.23,102.41,95.37,107.36,89.23,107.36Z"/></svg>