<svg id="Capa_1" data-name="Capa 1" xmlns="http://www.w3.org/2000/svg" viewBox="0 0 150 150"><defs><style>.cls-1{fill:#5b3934;}</style></defs><title>food6</title><path class="cls-1" d="M109.7,72.85C106.78,66.46,99.84,57,89.29,62s-15.88,5.12-28.45,4.21C67,71.1,77.65,73.11,90.32,67.75S109.7,72.85,109.7,72.85Zm-34.21-8.8C88.16,69.41,98.85,67.4,105,62.52c-12.56.91-17.9.81-28.45-4.21S59,62.76,56.11,69.16C56.11,69.16,62.82,58.69,75.49,64.05ZM59.68,67.82C72.35,73.19,83,71.17,89.15,66.3c-12.56.91-17.9.81-28.45-4.21S43.22,66.54,40.3,72.93C40.3,72.93,47,62.46,59.68,67.82Z"/><path class="cls-1" d="M86.25,45.81l3,14.76.29-.2c1.33-2.69,5.07-10.19,6.48-13C92,45.3,86.25,45.81,86.25,45.81Z"/><path class="cls-1" d="M74,56.74l13.78,3.66.73-.17c-1.8-2.36-6.86-9.08-8.74-11.58C76.09,51.34,74,56.74,74,56.74Z"/><path class="cls-1" d="M102.78,53.07,90.21,60.53l.91.67c3.45.46,10.52,1.28,13.31,1.69C105.11,58.38,102.78,53.07,102.78,53.07Z"/><path class="cls-1" d="M21.39,75.2H128.61a2.21,2.21,0,0,0,2.21-2.2v-.14a2.21,2.21,0,0,0-2.21-2.2H21.39a2.21,2.21,0,0,0-2.2,2.2V73A2.21,2.21,0,0,0,21.39,75.2Z"/><path class="cls-1" d="M73.06,100.6l-11.11,3.63c1.29.06,25.4-.06,26.7,0l-11.7-3.63a65.75,65.75,0,0,0,49-24.08H24A65.75,65.75,0,0,0,73.06,100.6Z"/></svg>