<svg id="Capa_1" data-name="Capa 1" xmlns="http://www.w3.org/2000/svg" viewBox="0 0 150 150"><defs><style>.cls-1{fill:#5b3934;}</style></defs><title>food3</title><path class="cls-1" d="M38.95,49.42H38l4.53-10.75s4,2.3,5.71,5.52C46.31,45.24,41.38,48.08,38.95,49.42ZM49.22,45.6l-8.94,3.55h9.48A20.47,20.47,0,0,0,49.22,45.6ZM67.14,78.4H54.49l.6,10.82h9.34Zm.66,10.82h6.9L77,78.4H70.51ZM36.92,53.63h-.35c-.8,2.77-1.91,6.56-2.44,8.34a14.08,14.08,0,0,0,4.06.44Zm-4.45,8,4-9.14L36.6,51c-2.17,1.2-7.69,4-9.84,5.14C28.46,59.32,32.47,61.62,32.47,61.62Zm5.06,1.91A13.39,13.39,0,1,1,50.87,49.14h1.45A14.83,14.83,0,1,0,37.53,65a5,5,0,0,0,1.15-.05l-.19-1.41S38.19,63.53,37.53,63.53ZM25.83,54.68l10.59-4.2.38-.46c-2.28-.66-8.71-2.57-11.11-3.29C24.62,50.22,25.83,54.68,25.83,54.68Zm11.28-5.14c-1.16-2.1-4.36-8-5.54-10.17C28.35,41.07,26,45.08,26,45.08l11.06,4.74Zm3.82-11.23c-3.48-1.08-7.94.13-7.94.13l4.35,11.07h.33C38.31,47.33,40.2,40.74,40.93,38.31Zm23.89,83.35V132.9h12v2.19H45.19V132.9h12V121.66h-6.4L37.53,51H84.45L71.22,121.66Zm5-1.63L82.48,52.6h-43L52.11,120h6.68v13.42h4.41V120ZM67.65,89.84l-6.7,26.75H57.58l6.7-26.75H55.12L56.62,117H68.8l5.77-27.16Zm-20.24,0,5.2,24.5-3.83-24.5Zm22-20.63H54l.47,8.58H67.3ZM101.36,16c-7-1.74-12.25-1.43-16.15,1-6,3.66-7.78,11.37-9.86,20.29-.37,1.57-.74,3.18-1.14,4.8l-2,8h3.37l1.8-7.2c.41-1.64.79-3.27,1.16-4.86,1.91-8.2,3.55-15.29,8.38-18.24,3.12-1.91,7.58-2.09,13.65-.57l26,6.5.79-3.17ZM70.66,77.79h6.46l1.82-8.58H72.81Zm4-24.25H71.34L67.72,68h3.37ZM47,78.4H45l2.3,10.82h1.41Zm-1.44-9.19H43l1.82,8.58H46.9Z"/></svg>