<svg id="Capa_1" data-name="Capa 1" xmlns="http://www.w3.org/2000/svg" viewBox="0 0 183 62"><defs><style>.cls-1{fill:#5b3934;}.cls-2{fill:#ffb11d;}</style></defs><title>kraken-foods</title><path class="cls-1" d="M13.42,5.77v11l.25.06,7.7-11.52a2.3,2.3,0,0,1,1.4-1,10.77,10.77,0,0,1,2.48-.22h2.35q3.56,0,3.56,1a2.32,2.32,0,0,1-.57,1.27l-8.84,12.6L32.13,35.36a3.13,3.13,0,0,1,.51,1.34q0,1-3.63,1H26.34q-3.12,0-3.82-1.21L13.68,21.81l-.25.06V35.62q0,2-3.82,2H7.82q-3.82,0-3.82-2V5.77q0-2,3.82-2H9.6Q13.42,3.73,13.42,5.77Z"/><path class="cls-1" d="M55.58,4.78a3.85,3.85,0,0,1,.8,2.39,12.6,12.6,0,0,1-.57,3.34q-.57,2-1.4,2a6.17,6.17,0,0,1-1.34-.25A6.56,6.56,0,0,0,51.41,12a4.88,4.88,0,0,0-3,1,8.4,8.4,0,0,0-2.07,2.2V35.62q0,2-3.82,2H40.72q-3.82,0-3.82-2V15.44q0-2.8-.16-4.29t-.41-3.34a7.08,7.08,0,0,1-.19-1.34q0-1,2.58-1.53a23.82,23.82,0,0,1,4.55-.51,1.64,1.64,0,0,1,1.59.86,7.63,7.63,0,0,1,.67,1.88q.22,1,.29,1.4A11.46,11.46,0,0,1,48.64,5a6.34,6.34,0,0,1,4.1-1.3A3.35,3.35,0,0,1,55.58,4.78Z"/><path class="cls-1" d="M82.13,6.57a9.81,9.81,0,0,1,3.25,7.8v12q0,2.93.16,4.46t.41,3.37a6.31,6.31,0,0,1,.19,1.4q0,1-2.58,1.53a23.74,23.74,0,0,1-4.55.51,1.61,1.61,0,0,1-1.59-.92,8.44,8.44,0,0,1-.67-2q-.22-1.08-.29-1.46A8.54,8.54,0,0,1,74.94,35a11.59,11.59,0,0,1-3.18,2.07,10.81,10.81,0,0,1-4.64,1q-4.9,0-7.16-2.55a9.77,9.77,0,0,1-2.26-6.74,10.94,10.94,0,0,1,3.72-8.46Q65.14,16.91,76,16.91v-2.1a3.21,3.21,0,0,0-1.18-2.74A6.34,6.34,0,0,0,71,11.18a14.39,14.39,0,0,0-3.79.45,20.05,20.05,0,0,0-2.9,1,7.53,7.53,0,0,1-1.46.57q-.64,0-1.4-1a10.64,10.64,0,0,1-1.34-2.2,5.05,5.05,0,0,1-.57-1.94Q59.54,7,61.13,6a14,14,0,0,1,4.39-1.65,27.88,27.88,0,0,1,6.17-.64Q78.88,3.73,82.13,6.57ZM67,27.79a2.63,2.63,0,0,0,.83,2,3.35,3.35,0,0,0,2.35.76,5.68,5.68,0,0,0,3.37-1.14A7,7,0,0,0,76,26.58v-3.5Q67,23.08,67,27.79Z"/><path class="cls-1" d="M99.65,5.77v11l.25.06,7.7-11.52a2.3,2.3,0,0,1,1.4-1,10.79,10.79,0,0,1,2.48-.22h2.35q3.56,0,3.56,1a2.32,2.32,0,0,1-.57,1.27L108,18.94l10.37,16.42a3.13,3.13,0,0,1,.51,1.34q0,1-3.63,1h-2.67q-3.12,0-3.82-1.21L99.9,21.81l-.25.06V35.62q0,2-3.82,2H94q-3.82,0-3.82-2V5.77q0-2,3.82-2h1.78Q99.65,3.73,99.65,5.77Z"/><path class="cls-1" d="M145.27,8.32q3.34,4.58,3.34,11.84a4.29,4.29,0,0,1-1.3,2.26q-1.3,1.49-1.94,1.49H129.14q.32,3.63,2.16,5.15a7.87,7.87,0,0,0,5.16,1.53,11.9,11.9,0,0,0,3.24-.41,30.49,30.49,0,0,0,3.05-1.05,4,4,0,0,1,1.4-.51,2.13,2.13,0,0,1,1.43.92,8.86,8.86,0,0,1,1.34,2.1,4.82,4.82,0,0,1,.54,1.81q0,1.46-2,2.51a16.36,16.36,0,0,1-4.71,1.56A26.56,26.56,0,0,1,136,38q-8.4,0-12.5-4.49t-4.11-12.44q0-9,4.11-13.17t11.36-4.2Q141.93,3.73,145.27,8.32Zm-16.13,9.29h10.31a8.44,8.44,0,0,0-1.14-4.68,3.84,3.84,0,0,0-3.44-1.75Q130.16,11.18,129.14,17.61Z"/><path class="cls-1" d="M176.76,6.25Q179,8.76,179.05,14V35.62q0,2-3.82,2h-1.78q-3.82,0-3.82-2V15.44a4.3,4.3,0,0,0-.89-3,3.78,3.78,0,0,0-2.93-1,4.52,4.52,0,0,0-3,1.11,8.62,8.62,0,0,0-2.07,2.58V35.62q0,2-3.82,2h-1.78q-3.82,0-3.82-2V15.44q0-2.8-.16-4.29t-.41-3.34a7.08,7.08,0,0,1-.19-1.34q0-1,2.58-1.53a23.81,23.81,0,0,1,4.55-.51,1.63,1.63,0,0,1,1.59.86,7.58,7.58,0,0,1,.67,1.88q.22,1,.29,1.4a12.55,12.55,0,0,1,4.07-3.44,11.05,11.05,0,0,1,5.41-1.4Q174.47,3.73,176.76,6.25Z"/><path class="cls-2" d="M103.46,50.1l-79.21,1L8,52.09c-2.28,0-4.08-1.94-4.08-3.08h0c0-1.14,1.91-3.07,4.19-3.07l16.18,1,79.25,1.27s3.07-.21,3.07.93h0C106.63,50.29,103.46,50.1,103.46,50.1Z"/><path class="cls-2" d="M104.28,56.25a1.18,1.18,0,1,1-2.36,0V45a9,9,0,0,1,.22-1.41,3.3,3.3,0,0,1,.56-1.21,3.08,3.08,0,0,1,1.18-1,4.19,4.19,0,0,1,1.81-.34h5.5a1.15,1.15,0,0,1,.83.34,1.12,1.12,0,0,1,.35.82A1.16,1.16,0,0,1,112,43a1.12,1.12,0,0,1-.83.36h-5.5v0q-.86,0-1.06.38a1.21,1.21,0,0,0-.24.55,5.7,5.7,0,0,0-.1.78v3h5.55a1.12,1.12,0,0,1,.83.36,1.16,1.16,0,0,1,.35.84,1.12,1.12,0,0,1-.35.82,1.14,1.14,0,0,1-.83.34h-5.55Z"/><path class="cls-2" d="M122.22,40.71a8.5,8.5,0,0,1,3.43.69,8.88,8.88,0,0,1,4.68,4.69,8.89,8.89,0,0,1,0,6.83,9,9,0,0,1-1.88,2.81,8.62,8.62,0,0,1-2.8,1.87,9.2,9.2,0,0,1-6.85,0A8.58,8.58,0,0,1,116,55.73a8.84,8.84,0,0,1,0-12.43,9,9,0,0,1,2.81-1.9A8.53,8.53,0,0,1,122.22,40.71Zm4.56,4.23a6.49,6.49,0,0,0-2-1.37,6.3,6.3,0,0,0-2.52-.5,6.22,6.22,0,0,0-2.49.5,6.41,6.41,0,0,0-3.4,3.4,6.29,6.29,0,0,0-.5,2.52,6.22,6.22,0,0,0,.5,2.49,6.41,6.41,0,0,0,3.4,3.4,6.22,6.22,0,0,0,2.49.5,6.3,6.3,0,0,0,2.52-.5,6.4,6.4,0,0,0,3.4-3.4,6.22,6.22,0,0,0,.5-2.49,6.29,6.29,0,0,0-.5-2.52A6.48,6.48,0,0,0,126.78,44.95Z"/><path class="cls-2" d="M140.66,40.71a8.5,8.5,0,0,1,3.43.69,8.88,8.88,0,0,1,4.68,4.69,8.89,8.89,0,0,1,0,6.83,9,9,0,0,1-1.88,2.81,8.62,8.62,0,0,1-2.8,1.87,9.2,9.2,0,0,1-6.85,0,8.58,8.58,0,0,1-2.81-1.87,8.84,8.84,0,0,1,0-12.43,9,9,0,0,1,2.81-1.9A8.53,8.53,0,0,1,140.66,40.71Zm4.56,4.23a6.49,6.49,0,0,0-2-1.37,6.3,6.3,0,0,0-2.52-.5,6.22,6.22,0,0,0-2.49.5,6.41,6.41,0,0,0-3.4,3.4,6.29,6.29,0,0,0-.5,2.52,6.22,6.22,0,0,0,.5,2.49,6.41,6.41,0,0,0,3.4,3.4,6.22,6.22,0,0,0,2.49.5,6.3,6.3,0,0,0,2.52-.5,6.4,6.4,0,0,0,3.4-3.4,6.22,6.22,0,0,0,.5-2.49,6.29,6.29,0,0,0-.5-2.52A6.48,6.48,0,0,0,145.22,44.95Z"/><path class="cls-2" d="M151.81,43.36A1.14,1.14,0,0,1,151,43a1.12,1.12,0,0,1-.35-.82,1.16,1.16,0,0,1,.35-.84,1.12,1.12,0,0,1,.83-.36h6.1a5.2,5.2,0,0,1,2,.36,4.89,4.89,0,0,1,1.57,1,6.42,6.42,0,0,1,1.17,1.52,9.79,9.79,0,0,1,.81,1.91,10,10,0,0,1,.35,1.58,12.23,12.23,0,0,1,.12,1.67,15.73,15.73,0,0,1-.09,1.65,8.86,8.86,0,0,1-.32,1.59,9.83,9.83,0,0,1-.78,2,6.61,6.61,0,0,1-1.18,1.62,5.49,5.49,0,0,1-1.6,1.11,4.73,4.73,0,0,1-2,.42h-6.1a1.14,1.14,0,0,1-.83-.34,1.12,1.12,0,0,1-.35-.82,1.16,1.16,0,0,1,.35-.84,1.12,1.12,0,0,1,.83-.36h6.1a2.66,2.66,0,0,0,2.06-1,6.12,6.12,0,0,0,1.19-2.37,9.85,9.85,0,0,0,.35-2.65,8.84,8.84,0,0,0-.1-1.33,10.29,10.29,0,0,0-.27-1.27,5.64,5.64,0,0,0-1.21-2.21,2.62,2.62,0,0,0-2-.88Z"/><path class="cls-2" d="M170.75,48h3.68a4.88,4.88,0,0,1,1.86.35,4.29,4.29,0,0,1,1.47,1,4.55,4.55,0,0,1,1,1.48,4.88,4.88,0,0,1,.35,1.86,5,5,0,0,1-.35,1.87,4.8,4.8,0,0,1-.95,1.51,4.37,4.37,0,0,1-1.45,1,4.62,4.62,0,0,1-1.88.37h-6.62a1.16,1.16,0,0,1-.85-.36,1.19,1.19,0,0,1-.36-.88A1.23,1.23,0,0,1,167.81,55h6.62a2.12,2.12,0,0,0,1.6-.69,2.38,2.38,0,0,0,.59-1.64,2.33,2.33,0,0,0-.56-1.55,1.85,1.85,0,0,0-1.48-.66l-2.27,0q-1.15,0-2.3,0a5,5,0,0,1-1.88-.4,4.59,4.59,0,0,1-1.45-1,4.25,4.25,0,0,1-.94-1.5,5.38,5.38,0,0,1-.33-1.91,4.91,4.91,0,0,1,.35-1.84,4.47,4.47,0,0,1,.95-1.48,4.24,4.24,0,0,1,1.45-1A4.88,4.88,0,0,1,170,41v0h6a1.17,1.17,0,0,1,.88.37,1.22,1.22,0,0,1,0,1.73,1.17,1.17,0,0,1-.88.37h-6a2,2,0,0,0-1.57.6,2.27,2.27,0,0,0-.59,1.61,2.41,2.41,0,0,0,.58,1.64A2.07,2.07,0,0,0,170,48Z"/></svg>