<svg xmlns="http://www.w3.org/2000/svg" xmlns:xlink="http://www.w3.org/1999/xlink" viewBox="0 0 482.22 504.04"><defs><style>.cls-1{isolation:isolate;}.cls-2{fill:url(#linear-gradient);}.cls-3{fill:url(#linear-gradient-2);}.cls-10,.cls-4,.cls-6,.cls-8{opacity:0.3;}.cls-10,.cls-4,.cls-5,.cls-6,.cls-8,.cls-9{mix-blend-mode:multiply;}.cls-4{fill:url(#linear-gradient-3);}.cls-5{fill:url(#linear-gradient-4);}.cls-6{fill:url(#linear-gradient-5);}.cls-7{fill:url(#linear-gradient-6);}.cls-8{fill:url(#linear-gradient-7);}.cls-9{fill:url(#linear-gradient-8);}.cls-10{fill:url(#linear-gradient-9);}.cls-11{fill:#f7941e;}.cls-12{fill:#fcc6a5;}.cls-13{fill:#1b1b1b;}.cls-14{fill:#fff;}.cls-15{fill:#fbc9aa;}.cls-16{fill:#555;}</style><linearGradient id="linear-gradient" x1="243.71" y1="377.03" x2="243.71" y2="14.5" gradientUnits="userSpaceOnUse"><stop offset="0" stop-color="#fbc9aa"/><stop offset="0.2" stop-color="#fbceb1"/><stop offset="0.49" stop-color="#fcdac5"/><stop offset="0.84" stop-color="#feefe5"/><stop offset="0.99" stop-color="#fff9f6"/></linearGradient><linearGradient id="linear-gradient-2" x1="243.96" y1="247.93" x2="243.96" y2="-43.91" xlink:href="#linear-gradient"/><linearGradient id="linear-gradient-3" x1="119.98" y1="248.87" x2="119.98" y2="79.66" xlink:href="#linear-gradient"/><linearGradient id="linear-gradient-4" x1="244.23" y1="347.53" x2="244.23" y2="280.83" xlink:href="#linear-gradient"/><linearGradient id="linear-gradient-5" x1="132.89" y1="347.53" x2="132.89" y2="280.83" xlink:href="#linear-gradient"/><linearGradient id="linear-gradient-6" x1="-104.19" y1="247.93" x2="-104.19" y2="-43.91" gradientTransform="matrix(-1, 0, 0, 1, 138.33, 0)" xlink:href="#linear-gradient"/><linearGradient id="linear-gradient-7" x1="-229.1" y1="246.79" x2="-229.1" y2="77.58" gradientTransform="matrix(-1, 0, 0, 1, 138.33, 0)" xlink:href="#linear-gradient"/><linearGradient id="linear-gradient-8" x1="-103.92" y1="347.53" x2="-103.92" y2="280.83" gradientTransform="matrix(-1, 0, 0, 1, 138.33, 0)" xlink:href="#linear-gradient"/><linearGradient id="linear-gradient-9" x1="-218.13" y1="345.53" x2="-218.13" y2="278.83" gradientTransform="matrix(-1, 0, 0, 1, 138.33, 0)" xlink:href="#linear-gradient"/></defs><title>logo kraken</title><g class="cls-1"><g id="Layer_1" data-name="Layer 1"><path class="cls-2" d="M456.29,377c6.57-14.39,6.08-50.75-28.8-51.56-14.12-.33-28.91,12.89-49.25,24.43-16.78,9.52-37.34,17.92-64.52,16.66a58,58,0,0,1-18.68-4c-28.08-11-44.72-42.13-50.28-61.62-.46-1.7-.81-3.12-1.06-4.23-.25,1.11-.59,2.53-1,4.23-5.56,19.49-22.2,50.58-50.28,61.62a58,58,0,0,1-18.68,4c-27.18,1.26-47.74-7.14-64.52-16.66C88.83,338.36,74,325.14,59.91,325.47,25,326.28,24.54,362.64,31.12,377,18,370.52,1.21,311.18,48.52,299.34c33-8.27,80.6,37.79,122.24,29.29,19.39-4,23.7-19.63,25-31.34-13.06,8.93-29.58,16.45-47.15,15.1-41.8-3.18-65.16-30.48-66.94-64.92-2.42-46.72,40.41-81.94,30.67-111.95-8.59-26.49-57.56-14.41-66.72-11.89l-1.48.4v-.19c.21-6.36,48.77-35.92,81.85-8.69,40.59,33.38-56.33,128.46,11.92,161.76,44.24,21.58,62.8-41.8,68.49-51,.55-18.87-19.5-85.29-25.37-107.73C170.38,77.34,195.61,14.5,241,14.5c.91,0,1.82,0,2.72,0s1.82,0,2.72,0c45.38,0,70.61,62.84,59.93,103.7-5.87,22.44-25.92,88.86-25.38,107.73,5.7,9.18,24.26,72.56,68.5,51,68.25-33.3-28.68-128.38,11.92-161.76,33.08-27.23,81.63,2.33,81.84,8.69a.6.6,0,0,1,0,.19l-1.47-.4c-9.16-2.52-58.13-14.6-66.73,11.89-9.73,30,33.09,65.23,30.67,111.95-1.78,34.44-25.13,61.74-66.94,64.92-17.56,1.35-34.08-6.17-47.14-15.1,1.33,11.71,5.64,27.38,25,31.34,41.64,8.5,89.22-37.56,122.24-29.29C486.2,311.18,469.37,370.52,456.29,377Z"/><path class="cls-3" d="M244.09,294.92c0-.2.08-.42.12-.64l-.51,2.43C243.88,296,244,295.35,244.09,294.92Z"/><path class="cls-4" d="M107.24,281.38c-44-53.15,33-116.49,13.4-150.93-16.9-29.69-62.73-12.53-76.46-6.54a1.19,1.19,0,0,0,0,.19l1.47-.4c9.16-2.52,58.13-14.6,66.73,11.89,9.73,30-33.09,65.23-30.67,111.95,1.78,34.44,25.14,61.74,66.94,64.92,17.57,1.35,34.09-6.17,47.14-15.1C195.79,297.37,141.84,323.17,107.24,281.38Z"/><path class="cls-5" d="M244.24,294.17h0l0,.1Z"/><path class="cls-6" d="M157.37,355.49C110.3,352,81.7,306.82,50.17,315.73.05,329.89,31.09,377,31.09,377c-6.58-14.39-6.08-50.75,28.79-51.56,14.12-.33,28.91,12.89,49.26,24.43,16.78,9.52,37.34,17.92,64.52,16.66a58.1,58.1,0,0,0,18.68-4c28.08-11,44.72-42.13,50.28-61.62.46-1.7.81-3.13,1.06-4.24l.51-2.43,0-.1C244,294.71,219.35,360.11,157.37,355.49Z"/><path class="cls-7" d="M242.39,294.92c0-.2-.08-.42-.12-.64l.51,2.43C242.6,296,242.47,295.35,242.39,294.92Z"/><path class="cls-8" d="M380.17,279.29c44-53.15-33-116.49-13.4-150.93,16.9-29.69,62.73-12.53,76.46-6.54a1.19,1.19,0,0,1,0,.19l-1.47-.4c-9.16-2.52-58.13-14.6-66.73,11.89-9.73,30,33.09,65.23,30.67,111.95-1.78,34.44-25.14,61.74-66.94,64.92-17.57,1.35-34.09-6.17-47.14-15.1C291.62,295.29,345.57,321.09,380.17,279.29Z"/><path class="cls-9" d="M242.24,294.17h0l0,.1Z"/><path class="cls-10" d="M332,353.49c47.06-3.51,75.67-48.67,107.2-39.76,50.12,14.16,19.08,61.3,19.08,61.3,6.58-14.39,6.08-50.75-28.79-51.56-14.12-.33-28.91,12.89-49.26,24.43-16.78,9.52-37.34,17.92-64.52,16.66a58.1,58.1,0,0,1-18.68-4c-28.08-11-44.72-42.13-50.28-61.62-.46-1.7-.81-3.13-1.06-4.24l-.51-2.43,0-.1C245.35,292.71,270,358.11,332,353.49Z"/><path class="cls-11" d="M277.11,294.93c-.21,1-.67,3.16-1.44,6C276.29,298.78,276.76,296.77,277.11,294.93Z"/><path class="cls-11" d="M277.25,294.18c0,.24-.1.51-.15.76C277.2,294.45,277.25,294.18,277.25,294.18Z"/><path class="cls-11" d="M277.4,294.93c.21,1,.67,3.16,1.44,6C278.21,298.78,277.74,296.77,277.4,294.93Z"/><path class="cls-11" d="M277.25,294.18c0,.24.1.51.15.76C277.3,294.45,277.25,294.18,277.25,294.18Z"/><path class="cls-12" d="M60.9,396.82v25.77l.59.15,18-27a5.38,5.38,0,0,1,3.28-2.31,25.21,25.21,0,0,1,5.81-.52h5.51q8.34,0,8.34,2.23a5.42,5.42,0,0,1-1.34,3l-20.7,29.49,24.27,38.42a7.32,7.32,0,0,1,1.19,3.13q0,2.23-8.49,2.23H91.13q-7.3,0-8.93-2.83l-20.7-34.25-.59.15v32.17q0,4.77-8.94,4.76H47.8q-8.94,0-8.94-4.76V396.82q0-4.77,8.94-4.77H52Q60.9,392,60.9,396.82Z"/><path class="cls-12" d="M159.57,394.51a9,9,0,0,1,1.86,5.59,29.49,29.49,0,0,1-1.34,7.82q-1.34,4.69-3.28,4.69a14.45,14.45,0,0,1-3.13-.6,15.34,15.34,0,0,0-3.87-.6,11.42,11.42,0,0,0-7.08,2.31,19.65,19.65,0,0,0-4.84,5.14v47.81q0,4.77-8.94,4.76h-4.17q-8.94,0-8.93-4.76V419.45q0-6.55-.37-10.05t-1-7.82a16.57,16.57,0,0,1-.45-3.13q0-2.38,6-3.57a55.74,55.74,0,0,1,10.65-1.19,3.83,3.83,0,0,1,3.73,2,17.86,17.86,0,0,1,1.56,4.39q.52,2.38.67,3.28a26.82,26.82,0,0,1,6.63-8.26,14.85,14.85,0,0,1,9.6-3.05Q157.7,392,159.57,394.51Z"/><path class="cls-12" d="M221.71,398.68q7.59,6.63,7.6,18.24v28q0,6.86.37,10.43t1,7.89a14.76,14.76,0,0,1,.45,3.28q0,2.39-6,3.57a55.56,55.56,0,0,1-10.65,1.19,3.77,3.77,0,0,1-3.72-2.16,19.76,19.76,0,0,1-1.57-4.69q-.52-2.53-.67-3.43a20,20,0,0,1-3.57,4.25,27.14,27.14,0,0,1-7.45,4.84,25.31,25.31,0,0,1-10.87,2.23q-11.47,0-16.75-6t-5.29-15.79a25.61,25.61,0,0,1,8.72-19.81q8.71-7.89,34-7.89V418q0-4.32-2.75-6.4t-8.86-2.09a33.67,33.67,0,0,0-8.86,1A46.94,46.94,0,0,0,180,412.9a17.63,17.63,0,0,1-3.42,1.34q-1.49,0-3.28-2.23a24.91,24.91,0,0,1-3.13-5.14,11.82,11.82,0,0,1-1.34-4.54q0-2.53,3.72-4.91a32.82,32.82,0,0,1,10.28-3.87A65.25,65.25,0,0,1,197.29,392Q214.11,392,221.71,398.68Zm-35.3,49.67a6.16,6.16,0,0,0,1.94,4.77,7.83,7.83,0,0,0,5.51,1.79,13.29,13.29,0,0,0,7.89-2.68,16.32,16.32,0,0,0,5.51-6.7v-8.19Q186.41,437.33,186.41,448.35Z"/><path class="cls-12" d="M262.71,396.82v25.77l.59.15,18-27a5.39,5.39,0,0,1,3.27-2.31,25.25,25.25,0,0,1,5.81-.52h5.51q8.34,0,8.34,2.23a5.42,5.42,0,0,1-1.34,3l-20.7,29.49,24.28,38.42a7.32,7.32,0,0,1,1.19,3.13q0,2.23-8.49,2.23h-6.26q-7.3,0-8.93-2.83l-20.7-34.25-.59.15v32.17q0,4.77-8.94,4.76h-4.17q-8.94,0-8.94-4.76V396.82q0-4.77,8.94-4.77h4.17Q262.71,392,262.71,396.82Z"/><path class="cls-12" d="M369.5,402.77q7.82,10.72,7.82,27.7,0,1.79-3.05,5.29t-4.54,3.5h-38q.74,8.49,5.06,12.06t12.07,3.57a27.85,27.85,0,0,0,7.59-1,71.35,71.35,0,0,0,7.15-2.46,9.45,9.45,0,0,1,3.28-1.19q1.49,0,3.35,2.16a20.74,20.74,0,0,1,3.13,4.92,11.29,11.29,0,0,1,1.27,4.24q0,3.43-4.62,5.88a38.29,38.29,0,0,1-11,3.65,62.15,62.15,0,0,1-11.17,1.19q-19.66,0-29.26-10.5T309,432.71q0-21,9.61-30.83T345.15,392Q361.68,392,369.5,402.77Zm-37.75,21.74h24.13q0-6.85-2.68-10.94a9,9,0,0,0-8-4.1Q334.12,409.47,331.75,424.52Z"/><path class="cls-12" d="M443.19,397.93q5.36,5.88,5.36,18.24v50.49q0,4.77-8.94,4.76h-4.17q-8.94,0-8.93-4.76V419.45q0-4.61-2.09-6.93t-6.85-2.31a10.57,10.57,0,0,0-7.07,2.6,20.17,20.17,0,0,0-4.84,6v47.81q0,4.77-8.93,4.76h-4.17q-8.94,0-8.93-4.76V419.45q0-6.55-.37-10.05t-1-7.82a16.57,16.57,0,0,1-.45-3.13q0-2.38,6-3.57a55.74,55.74,0,0,1,10.65-1.19,3.82,3.82,0,0,1,3.73,2,17.74,17.74,0,0,1,1.56,4.39q.52,2.38.67,3.28a29.37,29.37,0,0,1,9.53-8A25.87,25.87,0,0,1,426.66,392Q437.83,392,443.19,397.93Z"/><path class="cls-13" d="M180.48,144.11c-3.56,1.23-3.67,1.55-3.92,4.45s.13,5.39,2.18,6.13c2.81,1,2.72,4.89,4.26,16,1.38,10.12,5.28,18.12,23.06,19.53.91.08,1.79.11,2.64.12,15.44,0,21.14-11.11,23-14.82,3.59-7,2.85-16.62,11.68-16.64s7.67,9.44,10.82,16.42c1.7,3.77,6.71,15.33,22.73,14.87.61,0,1.25-.06,1.91-.11,17.85-1.49,22.25-9.52,24.25-19.64,2.21-11.13,2.35-15,5.23-16,2.1-.76,2.62-3.25,2.56-6.15s-.17-3.2-3.65-4.41c-2.76-1-18-2.34-29.43-1.62-.71,0-1.4.09-2.08.15-10.33.94-22.86,5.46-32.14,5.7-3.94.09-20.06-4.55-31.53-5.54-.81-.08-1.65-.14-2.51-.18C198.25,141.74,183.25,143.16,180.48,144.11Z"/><path class="cls-14" d="M255.4,152.81c3.57-4.94,13.15-7.1,22.39-7.6,9-.49,17.7.59,20.21,2.22,5.73,3.71,4.06,21.62-.77,30.49-3.35,6.16-12.22,9.29-20.21,9.43a22.78,22.78,0,0,1-10.46-2C258,180.91,249.47,161,255.4,152.81Z"/><path class="cls-14" d="M209.52,145.34c9.32.43,19,2.54,22.28,7.51,5.43,8.17-4.32,28.13-13.14,32.57a23.1,23.1,0,0,1-9.92,2.09c-8.17.07-17.25-3-20.3-9.34-4.29-8.86-4.89-26.75,1.09-30.5C192.11,146.05,200.67,144.94,209.52,145.34Z"/><circle class="cls-13" cx="209.25" cy="164.81" r="10.09"/><circle class="cls-13" cx="275.67" cy="164.81" r="10.09"/><circle class="cls-15" cx="266.39" cy="43.4" r="10.49"/><circle class="cls-15" cx="283.91" cy="53.89" r="7.02"/><circle class="cls-15" cx="270.99" cy="59.13" r="3.56"/><polygon class="cls-14" points="203.42 207.16 205.54 224.88 222.73 241.17 243.68 218.69 243.68 218.65 203.42 207.16"/><polygon class="cls-14" points="243.68 218.65 243.68 218.69 243.71 218.66 243.68 218.65"/><polygon class="cls-14" points="283.99 207.16 281.87 224.88 264.68 241.16 243.73 218.69 243.73 218.65 283.99 207.16"/><polygon class="cls-14" points="243.76 218.63 243.76 218.67 243.73 218.64 243.76 218.63"/><polygon class="cls-13" points="249.63 240.31 256.29 232.11 243.71 218.66 243.71 218.65 243.71 218.66 243.7 218.65 243.7 218.66 231.13 232.11 237.78 240.31 231.99 264.54 243.7 277.8 243.7 277.81 243.71 277.8 243.71 277.81 243.71 277.79 255.42 264.54 249.63 240.31"/><path class="cls-16" d="M46.8,480.12a2.93,2.93,0,0,1-.09.84.41.41,0,0,1-.43.3H40.8l-.51,4.82h5.3c.24,0,.36.16.36.46a2.9,2.9,0,0,1-.09.83.41.41,0,0,1-.43.31h-5.3L39.47,494a.47.47,0,0,1-.26.35,1.35,1.35,0,0,1-.62.12h-.17a1.2,1.2,0,0,1-.62-.12.38.38,0,0,1-.18-.35L39,480.29a.68.68,0,0,1,.19-.49.76.76,0,0,1,.51-.15h6.7C46.68,479.65,46.8,479.81,46.8,480.12Z"/><path class="cls-16" d="M65.09,493.09a4.55,4.55,0,0,1-.08.78.7.7,0,0,1-.48.53,2.11,2.11,0,0,1-.79.17q-1.9,0-1.9-2.07v-.21A4.37,4.37,0,0,1,60.37,494a3.31,3.31,0,0,1-1.83.55,3.48,3.48,0,0,1-1.61-.41,3.34,3.34,0,0,1-1.36-1.43A5.65,5.65,0,0,1,55,490a8.94,8.94,0,0,1,.64-3.5,5.52,5.52,0,0,1,1.82-2.39,4.49,4.49,0,0,1,2.71-.86,3.81,3.81,0,0,1,2.68,1.14,3.13,3.13,0,0,1,.37-.81.68.68,0,0,1,.58-.24h.13a.62.62,0,0,1,.41.11.44.44,0,0,1,.12.34L64,488.42q-.36,3.4-.36,3.76c0,.38.07.62.2.72a.93.93,0,0,0,.56.15,1.07,1.07,0,0,0,.32-.05,1,1,0,0,1,.25-.05C65,492.94,65.09,493,65.09,493.09Zm-2.54-7.46a3.47,3.47,0,0,0-2.2-.82,2.85,2.85,0,0,0-2.71,1.43,7.46,7.46,0,0,0-.79,3.64,4,4,0,0,0,.57,2.42,1.84,1.84,0,0,0,1.52.73,2.52,2.52,0,0,0,1.71-.84,6.43,6.43,0,0,0,1.46-2.73q.08-1,.17-1.78c.06-.51.09-.84.11-1S62.47,486.08,62.56,485.63Z"/><path class="cls-16" d="M80.8,483.45a3.31,3.31,0,0,1,1,.43q.36.25.36.49a1.3,1.3,0,0,1-.29.64c-.19.28-.37.41-.54.41a.6.6,0,0,1-.2-.1l-.26-.16a4.17,4.17,0,0,0-1.88-.38A3.07,3.07,0,0,0,76.44,486a6.54,6.54,0,0,0-1,4,3.28,3.28,0,0,0,.69,2.31,2.88,2.88,0,0,0,2.19.73,6.1,6.1,0,0,0,2.32-.46,4.3,4.3,0,0,1,.51-.19.11.11,0,0,1,.09,0,.41.41,0,0,1,0,.21,4.92,4.92,0,0,1-.11,1q-.11.55-1.11.76a9.21,9.21,0,0,1-1.89.21,4.88,4.88,0,0,1-3.42-1.06,4.41,4.41,0,0,1-1.14-3.38A8.37,8.37,0,0,1,75,485.2a4.81,4.81,0,0,1,4.21-1.93A6.12,6.12,0,0,1,80.8,483.45Z"/><path class="cls-16" d="M94.4,480.83a.39.39,0,0,1,.18.35l-.23,2.22h1.79a.34.34,0,0,1,.26.08.5.5,0,0,1,.07.32,1.6,1.6,0,0,1-.08.38,1.33,1.33,0,0,1-.3.51.73.73,0,0,1-.57.23H94.18q-.11,1-.41,3.83t-.31,3.1a1.28,1.28,0,0,0,.27.94,1,1,0,0,0,.74.26,2.16,2.16,0,0,0,.65-.07,1,1,0,0,1,.3-.07c.1,0,.15.06.15.19a3.43,3.43,0,0,1-.11.78.76.76,0,0,1-.5.53,2.48,2.48,0,0,1-.94.17,2.86,2.86,0,0,1-1.66-.49,2.08,2.08,0,0,1-.71-1.84q0-.4.31-3.34t.43-4H91.35a.29.29,0,0,1-.29-.15,1,1,0,0,1-.07-.42q0-.95.53-.95h1.06l.25-2.22a.41.41,0,0,1,.23-.36,1.47,1.47,0,0,1,.63-.11h.08A1.21,1.21,0,0,1,94.4,480.83Z"/><path class="cls-16" d="M115.07,493.09a4.46,4.46,0,0,1-.08.78.7.7,0,0,1-.48.53,2.1,2.1,0,0,1-.79.17q-1.9,0-1.9-2.07v-.21a5.47,5.47,0,0,1-1.76,1.73,4,4,0,0,1-2,.55,2.73,2.73,0,0,1-2.12-.74,2.89,2.89,0,0,1-.67-2q0-.17.34-3.48t.46-4.52a.41.41,0,0,1,.24-.36,1.55,1.55,0,0,1,.64-.11H107a1.21,1.21,0,0,1,.62.12.39.39,0,0,1,.18.35q-.13,1.14-.44,4.27t-.32,3.32a1.43,1.43,0,0,0,1.61,1.63,2.82,2.82,0,0,0,1.83-.82,6,6,0,0,0,1.55-2.77l.59-5.62a.41.41,0,0,1,.24-.36,1.55,1.55,0,0,1,.64-.11h.08a1.21,1.21,0,0,1,.62.12.39.39,0,0,1,.18.35l-.48,4.59q-.35,3.37-.35,3.77c0,.38.07.62.2.72a.93.93,0,0,0,.56.15,1.06,1.06,0,0,0,.32-.05,1,1,0,0,1,.25-.05C115,492.94,115.07,493,115.07,493.09Z"/><path class="cls-16" d="M130.27,483.45a.65.65,0,0,1,.33.62,1.68,1.68,0,0,1-.21.78c-.14.27-.28.4-.4.4a.72.72,0,0,1-.26-.12,1.12,1.12,0,0,0-.56-.12,2,2,0,0,0-1.54.89,6.6,6.6,0,0,0-1.14,2.45l-.59,5.66q-.06.47-.89.46h-.08q-.8,0-.8-.44l.8-7.48a14.45,14.45,0,0,0,.13-1.77c0-.18,0-.33,0-.45s0-.2,0-.27.14-.33.42-.39a3.44,3.44,0,0,1,.76-.1q.57,0,.57,1.06c0,.17,0,.42,0,.76a4.29,4.29,0,0,1,1.24-1.56,2.56,2.56,0,0,1,1.57-.57A1.5,1.5,0,0,1,130.27,483.45Z"/><path class="cls-16" d="M148.42,493.09a4.55,4.55,0,0,1-.08.78.7.7,0,0,1-.48.53,2.11,2.11,0,0,1-.79.17q-1.9,0-1.9-2.07v-.21A4.37,4.37,0,0,1,143.7,494a3.31,3.31,0,0,1-1.83.55,3.48,3.48,0,0,1-1.61-.41,3.34,3.34,0,0,1-1.36-1.43,5.65,5.65,0,0,1-.56-2.72,8.94,8.94,0,0,1,.64-3.5,5.52,5.52,0,0,1,1.82-2.39,4.49,4.49,0,0,1,2.71-.86,3.81,3.81,0,0,1,2.68,1.14,3.13,3.13,0,0,1,.37-.81.68.68,0,0,1,.58-.24h.13a.62.62,0,0,1,.41.11.44.44,0,0,1,.12.34l-.49,4.63q-.36,3.4-.36,3.76c0,.38.07.62.2.72a.93.93,0,0,0,.56.15A1.07,1.07,0,0,0,148,493a1,1,0,0,1,.25-.05C148.38,492.94,148.42,493,148.42,493.09Zm-2.54-7.46a3.47,3.47,0,0,0-2.2-.82,2.85,2.85,0,0,0-2.71,1.43,7.46,7.46,0,0,0-.79,3.64,4,4,0,0,0,.57,2.42,1.84,1.84,0,0,0,1.52.73,2.52,2.52,0,0,0,1.71-.84,6.43,6.43,0,0,0,1.46-2.73q.08-1,.17-1.78c.06-.51.09-.84.11-1S145.81,486.08,145.89,485.63Z"/><path class="cls-16" d="M164.13,483.45a3.31,3.31,0,0,1,1,.43q.36.25.36.49a1.3,1.3,0,0,1-.29.64c-.19.28-.37.41-.54.41a.6.6,0,0,1-.2-.1l-.26-.16a4.17,4.17,0,0,0-1.88-.38,3.07,3.07,0,0,0-2.57,1.26,6.54,6.54,0,0,0-1,4,3.28,3.28,0,0,0,.69,2.31,2.88,2.88,0,0,0,2.19.73,6.1,6.1,0,0,0,2.32-.46,4.3,4.3,0,0,1,.51-.19.11.11,0,0,1,.09,0,.41.41,0,0,1,0,.21,4.92,4.92,0,0,1-.11,1q-.11.55-1.11.76a9.21,9.21,0,0,1-1.89.21,4.88,4.88,0,0,1-3.42-1.06,4.41,4.41,0,0,1-1.14-3.38,8.37,8.37,0,0,1,1.36-4.93,4.81,4.81,0,0,1,4.21-1.93A6.12,6.12,0,0,1,164.13,483.45Z"/><path class="cls-16" d="M177,483.47a.39.39,0,0,1,.18.35q-.13,1.22-.49,4.59t-.36,3.77c0,.38.06.62.19.72a.89.89,0,0,0,.55.15,1.07,1.07,0,0,0,.32-.05,1,1,0,0,1,.25-.05c.08,0,.13.05.13.15a4.55,4.55,0,0,1-.08.78.7.7,0,0,1-.48.53,2.11,2.11,0,0,1-.79.17q-1.88,0-1.88-2,0-.59.41-4.67t.45-4.08a.41.41,0,0,1,.24-.36,1.55,1.55,0,0,1,.64-.11h.08A1.21,1.21,0,0,1,177,483.47Zm.59-4.81a.38.38,0,0,1,.18.36l-.13,1.25q0,.47-.8.46h-.25a1.75,1.75,0,0,1-.67-.1.36.36,0,0,1-.22-.37l.13-1.25a.41.41,0,0,1,.24-.36,1.55,1.55,0,0,1,.64-.11H177A1.32,1.32,0,0,1,177.59,478.66Z"/><path class="cls-16" d="M195.46,484.44a4.85,4.85,0,0,1,1.09,3.41,7.59,7.59,0,0,1-1.45,5,4.92,4.92,0,0,1-4,1.74,4.3,4.3,0,0,1-3.26-1.16,4.71,4.71,0,0,1-1.11-3.38,9.27,9.27,0,0,1,.59-3.37,5.44,5.44,0,0,1,1.84-2.46,5.11,5.11,0,0,1,3.15-.93A4.1,4.1,0,0,1,195.46,484.44Zm-6,1.72a6.83,6.83,0,0,0-.91,3.8,3.5,3.5,0,0,0,.65,2.32,2.5,2.5,0,0,0,2,.76,3,3,0,0,0,2.6-1.32,6.74,6.74,0,0,0,.91-3.83,3.57,3.57,0,0,0-.64-2.34,2.47,2.47,0,0,0-2-.76A3,3,0,0,0,189.45,486.16Zm5.79-7.18v.25a.69.69,0,0,1-.21.37q-.21.24-1.16,1.24l-.87.87a1.18,1.18,0,0,1-.49.29,2,2,0,0,1-.63.1c-.31,0-.46-.06-.46-.19a1.69,1.69,0,0,1,.29-.61q.29-.46,1.17-1.75a1.18,1.18,0,0,1,.54-.42,2.34,2.34,0,0,1,.83-.13Z"/><path class="cls-16" d="M215.56,493.09a4.55,4.55,0,0,1-.08.78.7.7,0,0,1-.48.53,2.1,2.1,0,0,1-.79.17q-1.9,0-1.9-2.07,0-.46.36-3.7.23-2.13.23-2.37a1.43,1.43,0,0,0-1.61-1.63,2.87,2.87,0,0,0-1.81.78,5.65,5.65,0,0,0-1.55,2.62q-.21,2-.38,3.66t-.23,2.14q-.06.47-.89.46h-.08q-.8,0-.8-.44.15-1.31.54-5t.39-4.28c0-.25,0-.43,0-.52s0-.16,0-.2c0-.2.14-.33.42-.39a3.44,3.44,0,0,1,.76-.1q.55,0,.55,1.42v.4a4.55,4.55,0,0,1,3.74-2.13A2.73,2.73,0,0,1,214,484a2.89,2.89,0,0,1,.67,2c0,.22,0,.6-.11,1.11s-.11,1.09-.17,1.72q-.34,3-.34,3.34c0,.38.07.62.2.72a.94.94,0,0,0,.56.15,1.07,1.07,0,0,0,.32-.05.94.94,0,0,1,.25-.05C215.51,492.94,215.56,493,215.56,493.09Z"/><path class="cls-16" d="M243.68,483.45a3.31,3.31,0,0,1,1,.43q.36.25.36.49a1.3,1.3,0,0,1-.29.64c-.19.28-.37.41-.54.41a.6.6,0,0,1-.2-.1l-.26-.16a4.17,4.17,0,0,0-1.88-.38,3.07,3.07,0,0,0-2.57,1.26,6.54,6.54,0,0,0-1,4,3.28,3.28,0,0,0,.69,2.31,2.88,2.88,0,0,0,2.19.73,6.1,6.1,0,0,0,2.32-.46,4.3,4.3,0,0,1,.51-.19.11.11,0,0,1,.09,0,.41.41,0,0,1,0,.21,4.92,4.92,0,0,1-.11,1q-.11.55-1.11.76a9.21,9.21,0,0,1-1.89.21,4.88,4.88,0,0,1-3.42-1.06,4.41,4.41,0,0,1-1.14-3.38,8.37,8.37,0,0,1,1.36-4.93,4.81,4.81,0,0,1,4.21-1.93A6.12,6.12,0,0,1,243.68,483.45Z"/><path class="cls-16" d="M262.44,484.44a4.85,4.85,0,0,1,1.09,3.41,7.59,7.59,0,0,1-1.45,5,4.92,4.92,0,0,1-4,1.74,4.3,4.3,0,0,1-3.26-1.16,4.71,4.71,0,0,1-1.11-3.38,9.27,9.27,0,0,1,.59-3.37,5.44,5.44,0,0,1,1.84-2.46,5.11,5.11,0,0,1,3.15-.93A4.1,4.1,0,0,1,262.44,484.44Zm-6,1.72a6.83,6.83,0,0,0-.91,3.8,3.5,3.5,0,0,0,.65,2.32,2.5,2.5,0,0,0,2,.76,3,3,0,0,0,2.6-1.32,6.74,6.74,0,0,0,.91-3.83,3.57,3.57,0,0,0-.64-2.34,2.47,2.47,0,0,0-2-.76A3,3,0,0,0,256.43,486.16Z"/><path class="cls-16" d="M288.71,493.09a4.46,4.46,0,0,1-.08.78.7.7,0,0,1-.48.53,2.1,2.1,0,0,1-.79.17q-1.9,0-1.9-2.07,0-.46.36-3.7.23-2.13.23-2.37a1.43,1.43,0,0,0-1.61-1.63,2.59,2.59,0,0,0-1.66.74,5.91,5.91,0,0,0-1.49,2.45l-.63,6a.42.42,0,0,1-.25.35,1.42,1.42,0,0,1-.63.12h-.08q-.8,0-.8-.44.13-1.14.45-4.27t.33-3.34a1.43,1.43,0,0,0-1.61-1.63,2.58,2.58,0,0,0-1.65.72,5.8,5.8,0,0,0-1.48,2.43L274.3,494q-.06.47-.89.46h-.08q-.8,0-.8-.44.15-1.31.54-5t.39-4.28c0-.25,0-.43,0-.52s0-.16,0-.2c0-.2.14-.33.42-.39a3.44,3.44,0,0,1,.76-.1q.3,0,.42.43a3.48,3.48,0,0,1,.13,1v.4a4.65,4.65,0,0,1,1.59-1.61,3.83,3.83,0,0,1,1.93-.53,2.82,2.82,0,0,1,2,.61,2.6,2.6,0,0,1,.79,1.67,4.79,4.79,0,0,1,1.63-1.71,3.8,3.8,0,0,1,2-.57,2.73,2.73,0,0,1,2.12.74,2.89,2.89,0,0,1,.67,2c0,.22,0,.6-.11,1.11s-.11,1.09-.17,1.72q-.34,3-.34,3.34c0,.38.07.62.2.72a.93.93,0,0,0,.56.15,1.06,1.06,0,0,0,.32-.05,1,1,0,0,1,.25-.05C288.67,492.94,288.71,493,288.71,493.09Z"/><path class="cls-16" d="M306.32,484.44a4.85,4.85,0,0,1,1.09,3.41,7.59,7.59,0,0,1-1.45,5,4.92,4.92,0,0,1-4,1.74,4.3,4.3,0,0,1-3.26-1.16,4.71,4.71,0,0,1-1.11-3.38,9.27,9.27,0,0,1,.59-3.37A5.44,5.44,0,0,1,300,484.2a5.11,5.11,0,0,1,3.15-.93A4.1,4.1,0,0,1,306.32,484.44Zm-6,1.72a6.83,6.83,0,0,0-.91,3.8,3.5,3.5,0,0,0,.65,2.32,2.5,2.5,0,0,0,2,.76,3,3,0,0,0,2.6-1.32,6.74,6.74,0,0,0,.91-3.83,3.57,3.57,0,0,0-.64-2.34,2.47,2.47,0,0,0-2-.76A3,3,0,0,0,300.31,486.16Z"/><path class="cls-16" d="M334.38,483.52c.58.17.87.41.87.72a1.23,1.23,0,0,1-.28.67c-.18.26-.33.39-.44.39a.58.58,0,0,1-.3-.11,3.75,3.75,0,0,0-.73-.29,3.31,3.31,0,0,0-.9-.11,2.41,2.41,0,0,0-1.44.38,1.21,1.21,0,0,0-.53,1,1.19,1.19,0,0,0,.42,1,9.79,9.79,0,0,0,1.5,1,6.78,6.78,0,0,1,2,1.49,2.56,2.56,0,0,1,.6,1.68,3,3,0,0,1-.49,1.66,3.33,3.33,0,0,1-1.44,1.19,6.14,6.14,0,0,1-3.89.23,2.94,2.94,0,0,1-1-.5.77.77,0,0,1-.34-.54,1.58,1.58,0,0,1,.21-.69c.14-.28.25-.41.34-.41a1,1,0,0,1,.32.15,4.05,4.05,0,0,0,2.18.68,2.62,2.62,0,0,0,1.67-.5,1.49,1.49,0,0,0,.63-1.21,1.32,1.32,0,0,0-.45-1,5.5,5.5,0,0,0-1-.71l-.76-.41a6.47,6.47,0,0,1-1.79-1.35,2.32,2.32,0,0,1-.55-1.54,2.57,2.57,0,0,1,.51-1.57,3.31,3.31,0,0,1,1.38-1.07,4.78,4.78,0,0,1,1.91-.38A6.33,6.33,0,0,1,334.38,483.52Z"/><path class="cls-16" d="M346.16,489.79V490a3,3,0,0,0,.79,2.36,3.41,3.41,0,0,0,2.29.69,4.58,4.58,0,0,0,1.54-.23,8.18,8.18,0,0,0,1.29-.59,1.5,1.5,0,0,1,.44-.21.14.14,0,0,1,.12,0,.44.44,0,0,1,0,.21,5.14,5.14,0,0,1-.11,1,1.11,1.11,0,0,1-.72.76,5.91,5.91,0,0,1-1.42.44,7.25,7.25,0,0,1-1.33.15q-4.78,0-4.77-4.37a8.16,8.16,0,0,1,1.44-5,5.1,5.1,0,0,1,4.37-1.93,4.07,4.07,0,0,1,2,.45,3,3,0,0,1,1.15,1.1,2.57,2.57,0,0,1,.36,1.26,3.14,3.14,0,0,1-1.63,2.95,8.19,8.19,0,0,1-4.08.92A9.94,9.94,0,0,1,346.16,489.79Zm.11-1.37h1.5a9.61,9.61,0,0,0,2.7-.4,1.71,1.71,0,0,0,1.37-1.77,1.29,1.29,0,0,0-.52-1,2.13,2.13,0,0,0-1.38-.42Q346.78,484.79,346.27,488.42Z"/><path class="cls-16" d="M369.18,483.45a.65.65,0,0,1,.33.62,1.68,1.68,0,0,1-.21.78c-.14.27-.28.4-.4.4a.72.72,0,0,1-.26-.12,1.12,1.12,0,0,0-.56-.12,2,2,0,0,0-1.54.89,6.6,6.6,0,0,0-1.14,2.45L364.8,494q-.06.47-.89.46h-.08q-.8,0-.8-.44l.8-7.48a14.45,14.45,0,0,0,.13-1.77c0-.18,0-.33,0-.45s0-.2,0-.27.14-.33.42-.39a3.44,3.44,0,0,1,.76-.1q.57,0,.57,1.06c0,.17,0,.42,0,.76a4.29,4.29,0,0,1,1.24-1.56,2.56,2.56,0,0,1,1.57-.57A1.5,1.5,0,0,1,369.18,483.45Z"/><path class="cls-16" d="M386.62,483.67a.84.84,0,0,1-.08.34l-4.48,10.14q-.15.34-.87.34h-.74c-.49,0-.77-.11-.82-.34l-2.32-10.2,0-.23q0-.36,1-.36h.17c.49,0,.77.11.82.34l1.25,5.58.68,3h.11l.34-.84q.46-1.22.87-2.13l2.43-5.58a.47.47,0,0,1,.33-.25,1.8,1.8,0,0,1,.54-.08h0Q386.62,483.35,386.62,483.67Z"/><path class="cls-16" d="M397.42,483.47a.39.39,0,0,1,.18.35q-.13,1.22-.49,4.59t-.36,3.77c0,.38.06.62.19.72a.89.89,0,0,0,.55.15,1.07,1.07,0,0,0,.32-.05,1,1,0,0,1,.25-.05c.08,0,.13.05.13.15a4.55,4.55,0,0,1-.08.78.7.7,0,0,1-.48.53,2.11,2.11,0,0,1-.79.17q-1.88,0-1.88-2,0-.59.41-4.67t.45-4.08a.41.41,0,0,1,.24-.36,1.55,1.55,0,0,1,.64-.11h.08A1.21,1.21,0,0,1,397.42,483.47Zm.59-4.81a.38.38,0,0,1,.18.36l-.13,1.25q0,.47-.8.46H397a1.75,1.75,0,0,1-.67-.1.36.36,0,0,1-.22-.37l.13-1.25a.41.41,0,0,1,.24-.36,1.55,1.55,0,0,1,.64-.11h.25A1.32,1.32,0,0,1,398,478.66Z"/><path class="cls-16" d="M414.34,483.45a3.31,3.31,0,0,1,1,.43q.36.25.36.49a1.3,1.3,0,0,1-.29.64c-.19.28-.37.41-.54.41a.6.6,0,0,1-.2-.1l-.26-.16a4.17,4.17,0,0,0-1.88-.38A3.07,3.07,0,0,0,410,486a6.54,6.54,0,0,0-1,4,3.28,3.28,0,0,0,.69,2.31,2.88,2.88,0,0,0,2.19.73,6.1,6.1,0,0,0,2.32-.46,4.3,4.3,0,0,1,.51-.19.11.11,0,0,1,.09,0,.41.41,0,0,1,0,.21,4.92,4.92,0,0,1-.11,1q-.11.55-1.11.76a9.21,9.21,0,0,1-1.89.21,4.88,4.88,0,0,1-3.42-1.06,4.41,4.41,0,0,1-1.14-3.38,8.37,8.37,0,0,1,1.36-4.93,4.81,4.81,0,0,1,4.21-1.93A6.12,6.12,0,0,1,414.34,483.45Z"/><path class="cls-16" d="M427.21,483.47a.39.39,0,0,1,.18.35q-.13,1.22-.49,4.59t-.36,3.77c0,.38.06.62.19.72a.89.89,0,0,0,.55.15,1.07,1.07,0,0,0,.32-.05,1,1,0,0,1,.25-.05c.08,0,.13.05.13.15a4.55,4.55,0,0,1-.08.78.7.7,0,0,1-.48.53,2.11,2.11,0,0,1-.79.17q-1.88,0-1.88-2,0-.59.41-4.67t.45-4.08a.41.41,0,0,1,.24-.36,1.55,1.55,0,0,1,.64-.11h.08A1.21,1.21,0,0,1,427.21,483.47Zm.59-4.81a.38.38,0,0,1,.18.36l-.13,1.25q0,.47-.8.46h-.25a1.75,1.75,0,0,1-.67-.1.36.36,0,0,1-.22-.37L426,479a.41.41,0,0,1,.24-.36,1.55,1.55,0,0,1,.64-.11h.25A1.32,1.32,0,0,1,427.8,478.66Z"/><path class="cls-16" d="M445.67,484.44a4.85,4.85,0,0,1,1.09,3.41,7.59,7.59,0,0,1-1.45,5,4.92,4.92,0,0,1-4,1.74,4.3,4.3,0,0,1-3.26-1.16,4.71,4.71,0,0,1-1.11-3.38,9.27,9.27,0,0,1,.59-3.37,5.44,5.44,0,0,1,1.84-2.46,5.11,5.11,0,0,1,3.15-.93A4.1,4.1,0,0,1,445.67,484.44Zm-6,1.72a6.83,6.83,0,0,0-.91,3.8,3.5,3.5,0,0,0,.65,2.32,2.5,2.5,0,0,0,2,.76,3,3,0,0,0,2.6-1.32,6.74,6.74,0,0,0,.91-3.83,3.57,3.57,0,0,0-.64-2.34,2.47,2.47,0,0,0-2-.76A3,3,0,0,0,439.66,486.16Z"/></g></g></svg>